<svg width="83" height="83" viewBox="0 0 83 83" fill="none" xmlns="http://www.w3.org/2000/svg">
<path d="M51.5726 19.6148L51.5726 30.9436L51.5726 72.2017L41.2581 68.7635L30.9436 72.2017L20.629 68.7635L10.3145 72.2017L10.3145 22.3004C10.3145 17.5171 10.3145 15.1254 11.4526 13.4018C11.9641 12.6272 12.6272 11.9642 13.4018 11.4527C15.1254 10.3146 17.5171 10.3146 22.3004 10.3146L51.9146 10.3146C54.902 10.3146 56.0752 14.1892 53.5894 15.8463C52.3294 16.6863 51.5726 18.1005 51.5726 19.6148Z" fill="#DAC9EF"/>
<path d="M61.8871 10.3146L24.0672 10.3146C17.5841 10.3146 14.3426 10.3146 12.3285 12.3286C10.3145 14.3426 10.3145 17.5842 10.3145 24.0672L10.3145 72.2017L20.629 68.7635L30.9436 72.2017L41.2581 68.7635L51.5726 72.2017L51.5726 30.9436M61.8871 10.3146C56.1906 10.3146 51.5726 14.9325 51.5726 20.6291L51.5726 30.9436M61.8871 10.3146C67.5837 10.3146 72.2016 14.9325 72.2016 20.6291L72.2016 27.9966C72.2016 29.1454 72.2016 29.7197 71.9382 30.1391C71.8008 30.3578 71.6158 30.5427 71.3972 30.6801C70.9778 30.9436 70.4034 30.9436 69.2546 30.9436L51.5726 30.9436" stroke="#222222" stroke-width="4.12581"/>
<path d="M24.0672 24.0674L37.8199 24.0674" stroke="#222222" stroke-width="4.12581" stroke-linecap="round"/>
<path d="M27.5054 37.8198H24.0672" stroke="#222222" stroke-width="4.12581" stroke-linecap="round"/>
<path d="M24.0672 51.5728L34.3817 51.5728" stroke="#222222" stroke-width="4.12581" stroke-linecap="round"/>
</svg>
